<svg width="173" height="62" viewBox="0 0 173 62" fill="none" xmlns="http://www.w3.org/2000/svg">
<path d="M20 8L2 26" stroke="white" stroke-width="3" stroke-linecap="round" stroke-linejoin="round"/>
<path d="M5 8H20V23" stroke="white" stroke-width="3" stroke-linecap="round" stroke-linejoin="round"/>
<path d="M64.84 17.6C64.84 15.952 65.208 14.48 65.944 13.184C66.696 11.872 67.712 10.856 68.992 10.136C70.288 9.4 71.736 9.032 73.336 9.032C75.208 9.032 76.848 9.512 78.256 10.472C79.664 11.432 80.648 12.76 81.208 14.456H77.344C76.96 13.656 76.416 13.056 75.712 12.656C75.024 12.256 74.224 12.056 73.312 12.056C72.336 12.056 71.464 12.288 70.696 12.752C69.944 13.2 69.352 13.84 68.92 14.672C68.504 15.504 68.296 16.48 68.296 17.6C68.296 18.704 68.504 19.68 68.92 20.528C69.352 21.36 69.944 22.008 70.696 22.472C71.464 22.92 72.336 23.144 73.312 23.144C74.224 23.144 75.024 22.944 75.712 22.544C76.416 22.128 76.96 21.52 77.344 20.72H81.208C80.648 22.432 79.664 23.768 78.256 24.728C76.864 25.672 75.224 26.144 73.336 26.144C71.736 26.144 70.288 25.784 68.992 25.064C67.712 24.328 66.696 23.312 65.944 22.016C65.208 20.72 64.84 19.248 64.84 17.6ZM87.4379 8.24V26H84.0779V8.24H87.4379ZM103.118 19.064C103.118 19.544 103.086 19.976 103.022 20.36H93.3016C93.3816 21.32 93.7176 22.072 94.3096 22.616C94.9016 23.16 95.6296 23.432 96.4936 23.432C97.7416 23.432 98.6296 22.896 99.1576 21.824H102.782C102.398 23.104 101.662 24.16 100.574 24.992C99.4856 25.808 98.1496 26.216 96.5656 26.216C95.2856 26.216 94.1336 25.936 93.1096 25.376C92.1016 24.8 91.3096 23.992 90.7336 22.952C90.1736 21.912 89.8936 20.712 89.8936 19.352C89.8936 17.976 90.1736 16.768 90.7336 15.728C91.2936 14.688 92.0776 13.888 93.0856 13.328C94.0936 12.768 95.2536 12.488 96.5656 12.488C97.8296 12.488 98.9576 12.76 99.9496 13.304C100.958 13.848 101.734 14.624 102.278 15.632C102.838 16.624 103.118 17.768 103.118 19.064ZM99.6376 18.104C99.6216 17.24 99.3096 16.552 98.7016 16.04C98.0936 15.512 97.3496 15.248 96.4696 15.248C95.6376 15.248 94.9336 15.504 94.3576 16.016C93.7976 16.512 93.4536 17.208 93.3256 18.104H99.6376ZM99.1336 9.2L93.6136 11.72V9.32L99.1336 6.464V9.2ZM122.082 12.512C123.714 12.512 125.026 13.016 126.018 14.024C127.026 15.016 127.53 16.408 127.53 18.2V26H124.17V18.656C124.17 17.616 123.906 16.824 123.378 16.28C122.85 15.72 122.13 15.44 121.218 15.44C120.306 15.44 119.578 15.72 119.034 16.28C118.506 16.824 118.242 17.616 118.242 18.656V26H114.882V18.656C114.882 17.616 114.618 16.824 114.09 16.28C113.562 15.72 112.842 15.44 111.93 15.44C111.002 15.44 110.266 15.72 109.722 16.28C109.194 16.824 108.93 17.616 108.93 18.656V26H105.57V12.704H108.93V14.312C109.362 13.752 109.914 13.312 110.586 12.992C111.274 12.672 112.026 12.512 112.842 12.512C113.882 12.512 114.81 12.736 115.626 13.184C116.442 13.616 117.074 14.24 117.522 15.056C117.954 14.288 118.578 13.672 119.394 13.208C120.226 12.744 121.122 12.512 122.082 12.512ZM143.079 19.064C143.079 19.544 143.047 19.976 142.983 20.36H133.263C133.343 21.32 133.679 22.072 134.271 22.616C134.863 23.16 135.591 23.432 136.455 23.432C137.703 23.432 138.591 22.896 139.119 21.824H142.743C142.359 23.104 141.623 24.16 140.535 24.992C139.447 25.808 138.111 26.216 136.527 26.216C135.247 26.216 134.095 25.936 133.071 25.376C132.063 24.8 131.271 23.992 130.695 22.952C130.135 21.912 129.854 20.712 129.854 19.352C129.854 17.976 130.135 16.768 130.695 15.728C131.255 14.688 132.039 13.888 133.047 13.328C134.055 12.768 135.215 12.488 136.527 12.488C137.791 12.488 138.919 12.76 139.911 13.304C140.919 13.848 141.695 14.624 142.239 15.632C142.799 16.624 143.079 17.768 143.079 19.064ZM139.599 18.104C139.583 17.24 139.271 16.552 138.663 16.04C138.055 15.512 137.311 15.248 136.431 15.248C135.599 15.248 134.895 15.504 134.319 16.016C133.759 16.512 133.415 17.208 133.287 18.104H139.599ZM152.899 12.512C154.483 12.512 155.763 13.016 156.739 14.024C157.715 15.016 158.203 16.408 158.203 18.2V26H154.843V18.656C154.843 17.6 154.579 16.792 154.051 16.232C153.523 15.656 152.803 15.368 151.891 15.368C150.963 15.368 150.227 15.656 149.683 16.232C149.155 16.792 148.891 17.6 148.891 18.656V26H145.531V12.704H148.891V14.36C149.339 13.784 149.907 13.336 150.595 13.016C151.299 12.68 152.067 12.512 152.899 12.512ZM165.31 15.464V21.896C165.31 22.344 165.414 22.672 165.622 22.88C165.846 23.072 166.214 23.168 166.726 23.168H168.286V26H166.174C163.342 26 161.926 24.624 161.926 21.872V15.464H160.342V12.704H161.926V9.416H165.31V12.704H168.286V15.464H165.31Z" fill="white"/>
<path d="M15.872 40.432C15.872 41.328 15.656 42.168 15.224 42.952C14.808 43.736 14.144 44.368 13.232 44.848C12.336 45.328 11.2 45.568 9.824 45.568H7.016V52H3.656V35.248H9.824C11.12 35.248 12.224 35.472 13.136 35.92C14.048 36.368 14.728 36.984 15.176 37.768C15.64 38.552 15.872 39.44 15.872 40.432ZM9.68 42.856C10.608 42.856 11.296 42.648 11.744 42.232C12.192 41.8 12.416 41.2 12.416 40.432C12.416 38.8 11.504 37.984 9.68 37.984H7.016V42.856H9.68ZM25.7456 38.512C26.7536 38.512 27.6496 38.736 28.4336 39.184C29.2176 39.616 29.8256 40.264 30.2576 41.128C30.7056 41.976 30.9296 43 30.9296 44.2V52H27.5696V44.656C27.5696 43.6 27.3056 42.792 26.7776 42.232C26.2496 41.656 25.5296 41.368 24.6176 41.368C23.6896 41.368 22.9536 41.656 22.4096 42.232C21.8816 42.792 21.6176 43.6 21.6176 44.656V52H18.2576V34.24H21.6176V40.36C22.0496 39.784 22.6256 39.336 23.3456 39.016C24.0656 38.68 24.8656 38.512 25.7456 38.512ZM37.4848 34.24V52H34.1248V34.24H37.4848ZM42.5084 37.12C41.9164 37.12 41.4204 36.936 41.0204 36.568C40.6364 36.184 40.4444 35.712 40.4444 35.152C40.4444 34.592 40.6364 34.128 41.0204 33.76C41.4204 33.376 41.9164 33.184 42.5084 33.184C43.1004 33.184 43.5884 33.376 43.9724 33.76C44.3724 34.128 44.5724 34.592 44.5724 35.152C44.5724 35.712 44.3724 36.184 43.9724 36.568C43.5884 36.936 43.1004 37.12 42.5084 37.12ZM44.1644 38.704V52H40.8044V38.704H44.1644ZM50.8441 40.624C51.2761 40.016 51.8681 39.512 52.6201 39.112C53.3881 38.696 54.2601 38.488 55.2361 38.488C56.3721 38.488 57.3961 38.768 58.3081 39.328C59.2361 39.888 59.9641 40.688 60.4921 41.728C61.0361 42.752 61.3081 43.944 61.3081 45.304C61.3081 46.664 61.0361 47.872 60.4921 48.928C59.9641 49.968 59.2361 50.776 58.3081 51.352C57.3961 51.928 56.3721 52.216 55.2361 52.216C54.2601 52.216 53.3961 52.016 52.6441 51.616C51.9081 51.216 51.3081 50.712 50.8441 50.104V58.336H47.4841V38.704H50.8441V40.624ZM57.8761 45.304C57.8761 44.504 57.7081 43.816 57.3721 43.24C57.0521 42.648 56.6201 42.2 56.0761 41.896C55.5481 41.592 54.9721 41.44 54.3481 41.44C53.7401 41.44 53.1641 41.6 52.6201 41.92C52.0921 42.224 51.6601 42.672 51.3241 43.264C51.0041 43.856 50.8441 44.552 50.8441 45.352C50.8441 46.152 51.0041 46.848 51.3241 47.44C51.6601 48.032 52.0921 48.488 52.6201 48.808C53.1641 49.112 53.7401 49.264 54.3481 49.264C54.9721 49.264 55.5481 49.104 56.0761 48.784C56.6201 48.464 57.0521 48.008 57.3721 47.416C57.7081 46.824 57.8761 46.12 57.8761 45.304ZM67.1098 40.624C67.5418 40.016 68.1338 39.512 68.8858 39.112C69.6538 38.696 70.5258 38.488 71.5018 38.488C72.6378 38.488 73.6618 38.768 74.5738 39.328C75.5018 39.888 76.2298 40.688 76.7578 41.728C77.3018 42.752 77.5738 43.944 77.5738 45.304C77.5738 46.664 77.3018 47.872 76.7578 48.928C76.2298 49.968 75.5018 50.776 74.5738 51.352C73.6618 51.928 72.6378 52.216 71.5018 52.216C70.5258 52.216 69.6618 52.016 68.9098 51.616C68.1738 51.216 67.5738 50.712 67.1098 50.104V58.336H63.7498V38.704H67.1098V40.624ZM74.1418 45.304C74.1418 44.504 73.9738 43.816 73.6378 43.24C73.3178 42.648 72.8858 42.2 72.3418 41.896C71.8138 41.592 71.2378 41.44 70.6138 41.44C70.0058 41.44 69.4298 41.6 68.8858 41.92C68.3578 42.224 67.9258 42.672 67.5898 43.264C67.2698 43.856 67.1098 44.552 67.1098 45.352C67.1098 46.152 67.2698 46.848 67.5898 47.44C67.9258 48.032 68.3578 48.488 68.8858 48.808C69.4298 49.112 70.0058 49.264 70.6138 49.264C71.2378 49.264 71.8138 49.104 72.3418 48.784C72.8858 48.464 73.3178 48.008 73.6378 47.416C73.9738 46.824 74.1418 46.12 74.1418 45.304ZM85.9194 52.216C84.6394 52.216 83.4874 51.936 82.4634 51.376C81.4394 50.8 80.6314 49.992 80.0394 48.952C79.4634 47.912 79.1754 46.712 79.1754 45.352C79.1754 43.992 79.4714 42.792 80.0634 41.752C80.6714 40.712 81.4954 39.912 82.5354 39.352C83.5754 38.776 84.7354 38.488 86.0154 38.488C87.2954 38.488 88.4554 38.776 89.4954 39.352C90.5354 39.912 91.3514 40.712 91.9434 41.752C92.5514 42.792 92.8554 43.992 92.8554 45.352C92.8554 46.712 92.5434 47.912 91.9194 48.952C91.3114 49.992 90.4794 50.8 89.4234 51.376C88.3834 51.936 87.2154 52.216 85.9194 52.216ZM85.9194 49.288C86.5274 49.288 87.0954 49.144 87.6234 48.856C88.1674 48.552 88.5994 48.104 88.9194 47.512C89.2394 46.92 89.3994 46.2 89.3994 45.352C89.3994 44.088 89.0634 43.12 88.3914 42.448C87.7354 41.76 86.9274 41.416 85.9674 41.416C85.0074 41.416 84.1994 41.76 83.5434 42.448C82.9034 43.12 82.5834 44.088 82.5834 45.352C82.5834 46.616 82.8954 47.592 83.5194 48.28C84.1594 48.952 84.9594 49.288 85.9194 49.288ZM102.688 38.512C104.272 38.512 105.552 39.016 106.528 40.024C107.504 41.016 107.992 42.408 107.992 44.2V52H104.632V44.656C104.632 43.6 104.368 42.792 103.84 42.232C103.312 41.656 102.592 41.368 101.68 41.368C100.752 41.368 100.016 41.656 99.4721 42.232C98.9441 42.792 98.6801 43.6 98.6801 44.656V52H95.3201V38.704H98.6801V40.36C99.1281 39.784 99.6961 39.336 100.384 39.016C101.088 38.68 101.856 38.512 102.688 38.512ZM118.555 38.512C120.139 38.512 121.419 39.016 122.395 40.024C123.371 41.016 123.859 42.408 123.859 44.2V52H120.499V44.656C120.499 43.6 120.235 42.792 119.707 42.232C119.179 41.656 118.459 41.368 117.547 41.368C116.619 41.368 115.883 41.656 115.339 42.232C114.811 42.792 114.547 43.6 114.547 44.656V52H111.187V38.704H114.547V40.36C114.995 39.784 115.563 39.336 116.251 39.016C116.955 38.68 117.723 38.512 118.555 38.512ZM139.414 45.064C139.414 45.544 139.382 45.976 139.318 46.36H129.598C129.678 47.32 130.014 48.072 130.606 48.616C131.198 49.16 131.926 49.432 132.79 49.432C134.038 49.432 134.926 48.896 135.454 47.824H139.078C138.694 49.104 137.958 50.16 136.87 50.992C135.782 51.808 134.446 52.216 132.862 52.216C131.582 52.216 130.43 51.936 129.406 51.376C128.398 50.8 127.606 49.992 127.03 48.952C126.47 47.912 126.19 46.712 126.19 45.352C126.19 43.976 126.47 42.768 127.03 41.728C127.59 40.688 128.374 39.888 129.382 39.328C130.39 38.768 131.55 38.488 132.862 38.488C134.126 38.488 135.254 38.76 136.246 39.304C137.254 39.848 138.03 40.624 138.574 41.632C139.134 42.624 139.414 43.768 139.414 45.064ZM135.934 44.104C135.918 43.24 135.606 42.552 134.998 42.04C134.39 41.512 133.646 41.248 132.766 41.248C131.934 41.248 131.23 41.504 130.654 42.016C130.094 42.512 129.75 43.208 129.622 44.104H135.934ZM141.003 45.304C141.003 43.96 141.267 42.768 141.795 41.728C142.339 40.688 143.067 39.888 143.979 39.328C144.907 38.768 145.939 38.488 147.075 38.488C148.067 38.488 148.931 38.688 149.667 39.088C150.419 39.488 151.019 39.992 151.467 40.6V38.704H154.851V52H151.467V50.056C151.035 50.68 150.435 51.2 149.667 51.616C148.915 52.016 148.043 52.216 147.051 52.216C145.931 52.216 144.907 51.928 143.979 51.352C143.067 50.776 142.339 49.968 141.795 48.928C141.267 47.872 141.003 46.664 141.003 45.304ZM151.467 45.352C151.467 44.536 151.307 43.84 150.987 43.264C150.667 42.672 150.235 42.224 149.691 41.92C149.147 41.6 148.563 41.44 147.939 41.44C147.315 41.44 146.739 41.592 146.211 41.896C145.683 42.2 145.251 42.648 144.915 43.24C144.595 43.816 144.435 44.504 144.435 45.304C144.435 46.104 144.595 46.808 144.915 47.416C145.251 48.008 145.683 48.464 146.211 48.784C146.755 49.104 147.331 49.264 147.939 49.264C148.563 49.264 149.147 49.112 149.691 48.808C150.235 48.488 150.667 48.04 150.987 47.464C151.307 46.872 151.467 46.168 151.467 45.352ZM170.685 38.704V52H167.301V50.32C166.869 50.896 166.301 51.352 165.597 51.688C164.909 52.008 164.157 52.168 163.341 52.168C162.301 52.168 161.381 51.952 160.581 51.52C159.781 51.072 159.149 50.424 158.685 49.576C158.237 48.712 158.013 47.688 158.013 46.504V38.704H161.373V46.024C161.373 47.08 161.637 47.896 162.165 48.472C162.693 49.032 163.413 49.312 164.325 49.312C165.253 49.312 165.981 49.032 166.509 48.472C167.037 47.896 167.301 47.08 167.301 46.024V38.704H170.685Z" fill="white"/>
</svg>
